<?xml version="1.0" encoding="utf-8"?>
<!-- Generator: Adobe Illustrator 22.0.0, SVG Export Plug-In . SVG Version: 6.00 Build 0)  -->
<svg version="1.1" id="Layer_1" xmlns="http://www.w3.org/2000/svg" xmlns:xlink="http://www.w3.org/1999/xlink" x="0px" y="0px"
	 viewBox="0 0 216 216" style="enable-background:new 0 0 216 216;" xml:space="preserve">
<style type="text/css">
	.st0{fill:#4D9FB4;}
	.st1{fill:#71845C;}
</style>
<path class="st0" d="M114.7,62.5c-2.2-0.4-4.4-0.6-6.7-0.6c-21.6,0-39.1,17.5-39.1,39.1c0,1,0.1,2.1,0.1,3.1
	c0.6,7.7,3.4,14.8,7.8,20.6C84.1,134,95.3,140,108,140c12.5,0,23.6-5.8,30.7-14.9c5.2-6.6,8.3-15,8.3-24.1
	C147.1,81.7,133.1,65.7,114.7,62.5z"/>
<g id="planet">
	<path class="st1" d="M81.1,121.4c5.9-0.9,8.6,10.2,17.4,12c5.9,1.2,13.2-2,16-7.5c4.7-9.3-4.8-22.6-9.6-22
		c-4.2,0.5-4.8,11.8-7.8,11.6c-2.5-0.2-5.6-8.6-3.9-16.5c1.5-7,5.8-9,4.6-11.8c-2-4.8-17.3-5.7-21.6,0.5c-2.7,3.9,0.7,8.1-2.8,13
		c-1.4,2-2.9,2.7-4.4,3.3c0.6,7.7,3.4,14.8,7.8,20.6C77.9,123.2,79.1,121.7,81.1,121.4z"/>
	<path class="st1" d="M114.7,62.5c-4.6,0.6-8.5,2.3-9.9,5.4c-1.8,4.1,1,10.8,4.6,11.8c3,0.8,4.8-2.9,8-2.3c3.7,0.8,6.5,6.7,6.6,11.9
		c0.2,7.6-5.3,10.4-3.6,14.6c1.6,3.9,6.8,2.4,12,6.9c5.2,4.6,5.4,10.9,6.3,14.3c5.2-6.6,8.3-15,8.3-24.1
		C147.1,81.7,133.1,65.7,114.7,62.5z"/>
</g>
</svg>
