<svg xmlns="http://www.w3.org/2000/svg" xmlns:xlink="http://www.w3.org/1999/xlink" viewBox="0 0 496.7 430.16"><defs><style>.cls-1{fill:none;}.cls-2{fill:#120f22;stroke:#25202e;stroke-miterlimit:10;stroke-width:2px;}.cls-10,.cls-3,.cls-6,.cls-7,.cls-8,.cls-9{fill:#00000d;}.cls-3{opacity:0.65;}.cls-4{fill:#231f20;}.cls-5{fill:url(#space);}.cls-6{opacity:0.82;}.cls-8{opacity:0.53;}.cls-9{opacity:0.36;}.cls-10{opacity:0.19;}</style><pattern id="space" data-name="space" width="226.5" height="131" patternUnits="userSpaceOnUse" viewBox="0 0 226.5 131"><rect class="cls-1" width="226.5" height="131"/><polygon class="cls-2" points="264.25 65.62 188.75 65.62 151.01 131 188.75 196.38 264.25 196.38 301.99 131 264.25 65.62"/><polygon class="cls-2" points="151 131.12 75.5 131.12 37.76 196.5 75.5 261.88 151 261.88 188.74 196.5 151 131.12"/><polygon class="cls-2" points="37.74 65.62 -37.74 65.62 -75.49 131 -37.74 196.38 37.74 196.38 75.49 131 37.74 65.62"/><polygon class="cls-2" points="264.25 -65.38 188.75 -65.38 151.01 0 188.75 65.38 264.25 65.38 301.99 0 264.25 -65.38"/><polygon class="cls-2" points="151 0.12 75.5 0.12 37.76 65.5 75.5 130.88 151 130.88 188.74 65.5 151 0.12"/><polygon class="cls-2" points="37.74 -65.38 -37.74 -65.38 -75.49 0 -37.74 65.38 37.74 65.38 75.49 0 37.74 -65.38"/><polygon class="cls-2" points="151 -130.88 75.5 -130.88 37.76 -65.5 75.5 -0.12 151 -0.12 188.74 -65.5 151 -130.88"/></pattern></defs><title>black hole</title><g id="Layer_2" data-name="Layer 2"><g id="Layer_5" data-name="Layer 5"><g id="black_hole" data-name="black hole"><path class="cls-3" d="M285.31,151.07H211.39l-36.95,64,36.95,64h73.92l37-64ZM279.14,268.4H217.57l-30.79-53.32,30.79-53.32h61.57l30.78,53.32Z"/><polygon class="cls-4" points="279.14 161.76 217.57 161.76 186.78 215.08 217.57 268.4 279.14 268.4 309.92 215.08 279.14 161.76"/><polygon class="cls-5" points="279.14 161.76 217.57 161.76 186.78 215.08 217.57 268.4 279.14 268.4 309.92 215.08 279.14 161.76"/><path class="cls-6" d="M273.72,171.14H223l-25.37,43.94L223,259h50.73l25.36-43.93Zm-6,77.55H229l-19.41-33.61L229,181.47h38.81l19.4,33.61Z"/><polygon class="cls-4" points="267.76 181.47 228.95 181.47 209.54 215.08 228.95 248.69 267.76 248.69 287.16 215.08 267.76 181.47"/><polygon class="cls-5" points="267.76 181.47 228.95 181.47 209.54 215.08 228.95 248.69 267.76 248.69 287.16 215.08 267.76 181.47"/><polygon class="cls-7" points="262.15 238.98 234.55 238.98 220.75 215.08 234.55 191.18 262.15 191.18 275.95 215.08 262.15 238.98"/><path class="cls-8" d="M303.79,119.06H192.92l-55.44,96,55.44,96H303.79l55.43-96Zm-9.26,176H202.17l-46.17-80,46.17-80h92.36l46.18,80Z"/><path class="cls-9" d="M333.72,67.21H163L77.61,215.08,163,363H333.72l85.37-147.87Zm-14.25,271H177.24L106.12,215.08,177.24,91.91H319.47l71.11,123.17Z"/><path class="cls-10" d="M372.53,0H124.18L0,215.08,124.18,430.16H372.53L496.7,215.08ZM351.79,394.24H144.91L41.47,215.08,144.91,35.92H351.79L455.23,215.08Z"/></g></g></g></svg>