<svg xmlns="http://www.w3.org/2000/svg" viewBox="0 0 1126.09 1087.88"><defs><style>.cls-1{fill:#6999d1;}.cls-2{fill:#00a79d;}.cls-11,.cls-3{font-size:22px;font-family:MyriadPro-Regular, Myriad Pro;}.cls-3{fill:#fff;}.cls-4{letter-spacing:-0.01em;}.cls-5{letter-spacing:0em;}.cls-6{letter-spacing:-0.01em;}.cls-7{letter-spacing:-0.01em;}.cls-8{letter-spacing:-0.01em;}.cls-9{letter-spacing:-0.01em;}.cls-10{letter-spacing:0em;}.cls-11{fill:#231f20;}.cls-12{letter-spacing:-0.01em;}.cls-13{letter-spacing:-0.01em;}.cls-14{letter-spacing:0em;}.cls-15{letter-spacing:-0.01em;}.cls-16{letter-spacing:-0.01em;}.cls-17{letter-spacing:-0.01em;}.cls-18{letter-spacing:0em;}.cls-19{letter-spacing:0.02em;}.cls-20{letter-spacing:0em;}</style></defs><title>Asset 3</title><g id="Layer_2" data-name="Layer 2"><g id="Layer_4" data-name="Layer 4"><polygon class="cls-1" points="608.23 840 542.87 839.21 510.87 782.21 544.23 726 609.59 726.79 641.59 783.79 608.23 840"/><polygon class="cls-1" points="814.72 716 749.35 715.21 717.35 658.21 750.72 602 816.08 602.79 848.08 659.79 814.72 716"/><polygon class="cls-1" points="814.72 478.01 749.35 477.22 717.35 420.22 750.72 364.01 816.08 364.8 848.08 421.8 814.72 478.01"/><polygon class="cls-1" points="403.72 478.01 338.36 477.22 306.36 420.22 339.72 364.01 405.09 364.8 437.09 421.8 403.72 478.01"/><polygon class="cls-1" points="608.23 356 542.87 355.21 510.87 298.21 544.23 242 609.59 242.79 641.59 299.79 608.23 356"/><polygon class="cls-1" points="1023.04 838.61 957.68 837.83 925.68 780.83 959.04 724.61 1024.41 725.4 1056.41 782.4 1023.04 838.61"/><polygon class="cls-1" points="1023.04 360.2 957.68 359.41 925.68 302.41 959.04 246.2 1024.41 246.99 1056.41 303.99 1023.04 360.2"/><polygon class="cls-1" points="198.16 839.67 132.79 838.88 100.79 781.88 134.16 725.67 199.52 726.45 231.52 783.45 198.16 839.67"/><polygon class="cls-1" points="200.49 356 135.13 355.21 103.13 298.21 136.49 242 201.86 242.79 233.86 299.79 200.49 356"/><polygon class="cls-1" points="608.23 114 542.87 113.21 510.87 56.21 544.23 0 609.59 0.79 641.59 57.79 608.23 114"/><polygon class="cls-1" points="608.23 1087.88 542.87 1087.09 510.87 1030.09 544.23 973.88 609.59 974.66 641.59 1031.66 608.23 1087.88"/><polygon class="cls-1" points="608.23 598 542.87 597.21 510.87 540.21 544.23 484 609.59 484.79 641.59 541.79 608.23 598"/><polygon class="cls-1" points="403.72 716 338.36 715.21 306.36 658.21 339.72 602 405.09 602.79 437.09 659.79 403.72 716"/><polygon class="cls-2" points="406.98 962.55 341.62 961.77 309.62 904.77 342.98 848.55 408.35 849.34 440.35 906.34 406.98 962.55"/><polygon class="cls-2" points="819.13 962.55 753.77 961.77 721.77 904.77 755.13 848.55 820.5 849.34 852.5 906.34 819.13 962.55"/><polygon class="cls-2" points="1023.04 598 957.68 597.21 925.68 540.21 959.04 484 1024.41 484.79 1056.41 541.79 1023.04 598"/><polygon class="cls-2" points="812.1 235 746.73 234.21 714.73 177.21 748.1 121 813.46 121.79 845.46 178.79 812.1 235"/><polygon class="cls-2" points="403.72 235 338.36 234.21 306.36 177.21 339.72 121 405.09 121.79 437.09 178.79 403.72 235"/><polygon class="cls-2" points="198.16 596.61 132.79 595.83 100.79 538.83 134.16 482.61 199.52 483.4 231.52 540.4 198.16 596.61"/><text class="cls-3" transform="translate(970.45 541)"><tspan class="cls-4">r<tspan class="cls-5" x="6.97" y="0">epair</tspan></tspan><tspan x="0" y="26.4">ship</tspan></text><text class="cls-3" transform="translate(352.73 891.7)">laser<tspan x="0" y="26.4">ship</tspan></text><text class="cls-3" transform="translate(746.96 178)">missile <tspan x="0" y="26.4">ship</tspan></text><text class="cls-3" transform="translate(142.49 541)">s<tspan class="cls-6" x="8.71" y="0">c</tspan><tspan x="18.44" y="0">out </tspan><tspan x="0" y="26.4">ship</tspan></text><text class="cls-3" transform="translate(344.98 176.22)">nebula <tspan x="0" y="26.4">ship</tspan></text><text class="cls-3" transform="translate(746.96 905.56)">de<tspan class="cls-7" x="23.43" y="0">f</tspan><tspan class="cls-5" x="29.57" y="0">ensi</tspan><tspan class="cls-8" x="66.66" y="0">v</tspan><tspan x="77.02" y="0">e </tspan><tspan x="0" y="26.4">ship</tspan></text><text class="cls-3" transform="translate(148.49 767.32)">s<tspan class="cls-9" x="8.71" y="0">p</tspan><tspan class="cls-10" x="21.08" y="0">y</tspan><tspan x="0" y="26.4">ship</tspan></text><text class="cls-11" transform="translate(529.47 1030.88)">mine l<tspan class="cls-12" x="56.58" y="0">a</tspan><tspan x="67.01" y="0">ying</tspan><tspan x="0" y="26.4">ship</tspan></text><text class="cls-11" transform="translate(544.47 39.83)">nebula <tspan x="0" y="26.4">missile</tspan><tspan x="0" y="52.8">ship</tspan></text><text class="cls-11" transform="translate(334.48 406.32)">nebula<tspan x="0" y="26.4">dest</tspan><tspan class="cls-4" x="39.42" y="26.4">r</tspan><tspan class="cls-13" x="46.4" y="26.4">o</tspan><tspan class="cls-8" x="58.32" y="26.4">y</tspan><tspan x="68.46" y="26.4">er</tspan></text><text class="cls-11" transform="translate(746.96 406.32)">nano bot<tspan class="cls-6" x="0" y="26.4">c</tspan><tspan x="9.72" y="26.4">ommand</tspan><tspan x="0" y="52.8">ship</tspan></text><text class="cls-11" transform="translate(0 588.32)">m<tspan class="cls-9" x="18.35" y="0">o</tspan><tspan class="cls-4" x="30.27" y="0">v</tspan><tspan class="cls-5" x="40.63" y="0">eme</tspan><tspan class="cls-14" x="81.03" y="0">n</tspan><tspan x="93.15" y="0">t</tspan></text><text class="cls-11" transform="translate(853.46 110.83)"><tspan class="cls-15">r<tspan class="cls-5" x="7.08" y="0">anged </tspan></tspan><tspan x="0" y="26.4">missiles</tspan></text><text class="cls-11" transform="translate(256.49 979.7)">lasers</text><text class="cls-11" transform="translate(853.46 971.35)">de<tspan class="cls-16" x="23.43" y="0">f</tspan><tspan x="29.57" y="0">en</tspan><tspan class="cls-17" x="52.8" y="0">c</tspan><tspan x="62.52" y="0">e</tspan></text><text class="cls-11" transform="translate(226.49 119.49)">sensors</text><text class="cls-11" transform="translate(334.48 646.83)">fast m<tspan class="cls-13" x="56.03" y="0">o</tspan><tspan class="cls-8" x="67.96" y="0">v</tspan><tspan x="78.32" y="0">e</tspan><tspan x="0" y="26.4">laser ship</tspan><tspan x="0" y="52.8">(horses)</tspan></text><text class="cls-11" transform="translate(755.96 659)">stun or<tspan class="cls-6" x="0" y="26.4">t</tspan><tspan x="7.15" y="26.4">ether?</tspan></text><text class="cls-11" transform="translate(535.47 288.88)">dest<tspan class="cls-4" x="39.42" y="0">r</tspan><tspan class="cls-13" x="46.4" y="0">o</tspan><tspan class="cls-8" x="58.32" y="0">y</tspan><tspan x="68.46" y="0">er </tspan><tspan x="0" y="26.4">(c</tspan><tspan class="cls-18" x="16.1" y="26.4">a</tspan><tspan class="cls-10" x="26.62" y="26.4">tapult?)</tspan></text><text class="cls-11" transform="translate(535.47 533.64)">de<tspan class="cls-8" x="23.43" y="0">v</tspan><tspan class="cls-10" x="33.79" y="0">ou</tspan><tspan class="cls-8" x="57.99" y="0">r</tspan><tspan x="64.97" y="0">er</tspan><tspan x="0" y="26.4">(</tspan><tspan class="cls-19" x="6.25" y="26.4">k</tspan><tspan x="16.94" y="26.4">nig</tspan><tspan class="cls-20" x="46.6" y="26.4">h</tspan><tspan x="58.72" y="26.4">ts)</tspan></text><text class="cls-11" transform="translate(518.97 773.36)">s<tspan class="cls-8" x="8.71" y="0">w</tspan><tspan x="24.68" y="0">o</tspan><tspan class="cls-4" x="36.76" y="0">r</tspan><tspan x="43.74" y="0">dsmen</tspan><tspan x="0" y="26.4">(def and laser)</tspan></text><text class="cls-11" transform="translate(1051.45 509.37)"><tspan class="cls-4">r</tspan><tspan x="6.97" y="0">obotics</tspan></text><text class="cls-11" transform="translate(953.95 303.2)">guided<tspan x="0" y="26.4">missiles</tspan></text></g></g></svg>