<svg xmlns="http://www.w3.org/2000/svg" xmlns:xlink="http://www.w3.org/1999/xlink" viewBox="0 0 69.5 55.88"><defs><style>.cls-1{fill:#d82435;}.cls-2{fill:url(#linear-gradient);}.cls-3{fill:url(#linear-gradient-2);}.cls-4{fill:url(#linear-gradient-3);}.cls-5{fill:url(#linear-gradient-4);}.cls-6{fill:url(#linear-gradient-5);}</style><linearGradient id="linear-gradient" x1="542.42" y1="-54.23" x2="532.68" y2="-44.49" gradientTransform="matrix(0.96, 0.29, -0.29, 0.96, -521.91, -73.65)" gradientUnits="userSpaceOnUse"><stop offset="0" stop-color="#820614"/><stop offset="1" stop-color="#d82435" stop-opacity="0"/></linearGradient><linearGradient id="linear-gradient-2" x1="545.02" y1="-45.64" x2="535.28" y2="-35.9" gradientTransform="translate(-517.43 -74.86) rotate(16.86)" xlink:href="#linear-gradient"/><linearGradient id="linear-gradient-3" x1="547.59" y1="-37.16" x2="537.85" y2="-27.42" gradientTransform="translate(-512.99 -76.04) rotate(16.86)" xlink:href="#linear-gradient"/><linearGradient id="linear-gradient-4" x1="44.02" y1="-0.11" x2="27.95" y2="15.96" gradientTransform="matrix(1, 0, 0, 1, 0, 0)" xlink:href="#linear-gradient"/><linearGradient id="linear-gradient-5" x1="59.19" y1="27.84" x2="43.12" y2="43.91" gradientTransform="matrix(1, 0, 0, 1, 0, 0)" xlink:href="#linear-gradient"/></defs><title>devourer</title><g id="Layer_2" data-name="Layer 2"><g id="Layer_4" data-name="Layer 4"><g id="devourer"><polygon class="cls-1" points="38.16 27.33 54.16 0.39 22.82 0 6.82 26.95 22.15 54.28 53.49 54.67 69.5 27.72 38.16 27.33"/><rect class="cls-2" x="0.08" y="32.1" width="13.52" height="5.8" rx="1.25" ry="1.25" transform="translate(-16.58 8.11) rotate(-30)"/><rect class="cls-3" x="4.57" y="39.87" width="13.52" height="5.8" rx="1.25" ry="1.25" transform="translate(-19.87 11.4) rotate(-30)"/><rect class="cls-4" x="9" y="47.55" width="13.52" height="5.8" rx="1.25" ry="1.25" transform="translate(-23.11 14.64) rotate(-30)"/><polygon class="cls-5" points="25.49 5.33 34.49 22.5 47.8 3.67 25.49 5.33"/><polygon class="cls-6" points="62.97 31.62 40.66 33.28 49.66 50.45 62.97 31.62"/></g></g></g></svg>