<svg xmlns="http://www.w3.org/2000/svg" xmlns:xlink="http://www.w3.org/1999/xlink" viewBox="0 0 109.55 76.7"><defs><style>.cls-1{fill:url(#radial-gradient);}.cls-2{stroke:#120f22;stroke-miterlimit:10;fill:url(#linear-gradient);}</style><radialGradient id="radial-gradient" cx="-735.87" cy="-492.69" r="44.79" gradientTransform="matrix(-0.78, 0.63, -0.63, -0.78, -838.26, 117.69)" gradientUnits="userSpaceOnUse"><stop offset="0.28" stop-color="#1a3c57"/><stop offset="0.9" stop-color="#2c2a53"/></radialGradient><linearGradient id="linear-gradient" x1="0.5" y1="39.66" x2="109.05" y2="39.66" gradientUnits="userSpaceOnUse"><stop offset="0" stop-color="#1a3c57"/><stop offset="0.21" stop-color="#272f54"/><stop offset="0.41" stop-color="#2c2a53"/><stop offset="0.73" stop-color="#2a2c54"/><stop offset="0.91" stop-color="#223455"/><stop offset="1" stop-color="#1a3c57"/></linearGradient></defs><title>gas giant</title><g id="Layer_2" data-name="Layer 2"><g id="Layer_6" data-name="Layer 6"><g id="gas_giant" data-name="gas giant"><circle class="cls-1" cx="56.47" cy="38.35" r="38.35"/><path class="cls-2" d="M108.27,15.72c-2.87-6.4-13.19-8.64-27-6.94a39.18,39.18,0,0,1,5.22,5.4c6.49-.42,10.94.68,12.19,3.47s-.74,6.51-5,10.85c-6.63,6.75-18.91,14.73-33.85,21.41C46.18,56,33.19,59.77,23.84,60.7c-7.43.74-12.57-.29-13.92-3.32s1.49-7.88,7.4-13.14a39.18,39.18,0,0,1-.43-5.77c0-.67,0-1.35.05-2C4.59,46.39-1.84,56.64,1.28,63.6s15.44,9.07,31.46,6.28A134.13,134.13,0,0,0,63.89,60C76.32,54.47,87,47.74,94.9,41,105.73,31.64,111.18,22.24,108.27,15.72Z"/></g></g></g></svg>