<svg xmlns="http://www.w3.org/2000/svg" xmlns:xlink="http://www.w3.org/1999/xlink" viewBox="0 0 56.85 55"><defs><style>.cls-1{fill:#d82435;}.cls-2{fill:url(#linear-gradient);}.cls-3{fill:url(#linear-gradient-2);}.cls-4{fill:url(#linear-gradient-3);}</style><linearGradient id="linear-gradient" x1="259.96" y1="89.01" x2="250.22" y2="98.75" gradientTransform="matrix(0.96, 0.29, -0.29, 0.96, -210.14, -150.28)" gradientUnits="userSpaceOnUse"><stop offset="0" stop-color="#820614"/><stop offset="1" stop-color="#d82435" stop-opacity="0"/></linearGradient><linearGradient id="linear-gradient-2" x1="268.43" y1="116.96" x2="258.69" y2="126.7" xlink:href="#linear-gradient"/><linearGradient id="linear-gradient-3" x1="41.09" y1="22.34" x2="32.52" y2="30.91" gradientTransform="matrix(1, 0, 0, 1, 0, 0)" xlink:href="#linear-gradient"/></defs><title>laser ship</title><g id="Layer_2" data-name="Layer 2"><g id="Layer_4" data-name="Layer 4"><g id="laser_ship" data-name="laser ship"><rect class="cls-1" x="10.52" width="21.67" height="55" rx="4.5" ry="4.5"/><path class="cls-1" d="M27.31,18.75,55.6,23.93a1.52,1.52,0,0,1,1.25,1.49V27.3a1.52,1.52,0,0,1-1.17,1.48L27.39,35.55a1.51,1.51,0,0,1-1.87-1.48V20.24A1.51,1.51,0,0,1,27.31,18.75Z"/><polygon class="cls-1" points="28.35 0.05 37.24 0.05 30 6 28.35 0.05"/><polygon class="cls-1" points="28.35 55 37.36 55 30 49.33 28.35 55"/><rect class="cls-2" y="10.64" width="13.52" height="5.8" rx="1.25" ry="1.25"/><rect class="cls-3" y="39.86" width="13.52" height="5.8" rx="1.25" ry="1.25"/><path class="cls-4" d="M44.51,25.88l-12-2.73a.54.54,0,0,0-.66.53V30a.55.55,0,0,0,.7.52l12-3.61A.54.54,0,0,0,44.51,25.88Z"/></g></g></g></svg>