<svg xmlns="http://www.w3.org/2000/svg" xmlns:xlink="http://www.w3.org/1999/xlink" viewBox="0 0 48.87 37.43"><defs>
  <style>.cls-1{fill:#d82435;}.cls-2{fill:url(#linear-gradient);}</style>
  <linearGradient id="linear-gradient" x1="309.88" y1="18.48" x2="300.14" y2="28.22" 
    gradientTransform="matrix(0.96, 0.29, -0.29, 0.96, -278.37, -92.14)"
    gradientUnits="userSpaceOnUse"><stop offset="0" stop-color="#820614"/>
    <stop offset="1" stop-color="#d82435" stop-opacity="0"/></linearGradient>
  </defs><title>mine ship</title><g id="Layer_2" data-name="Layer 2">
  <g id="Layer_4" data-name="Layer 4"><g id="mine_ship" data-name="mine ship">
    <path class="cls-1" d="M21.29,33.8l12.42-.16a4.28,4.28,0,0,0,3.7-2.2l6.07-10.83a4.32,4.32,0,0,0,0-4.3L
      37.08,5.63a4.31,4.31,0,0,0-3.75-2.1l-12.42.16a4.3,4.3,0,0,0-3.7,2.2L11.14,16.72a4.32,4.32,0,0,0,0,4.3
      L17.54,31.7A4.31,4.31,0,0,0,21.29,33.8Z"/><rect class="cls-2" y="15.77" width="13.52" height="5.8" rx="1.25" ry="1.25"/><path class="cls-1" d="M31.89,4.74C35.23,2.07,38.23,0,38.23,0L37.08,8Z"/><path class="cls-1" d="M17.32,7.88c-.83-4.19-1.5-7.67-1.5-7.67l6.3,4.84Z"/><path class="cls-1" d="M41.77,15.77c4.07,1.3,7.1,2.42,7.1,2.42L42,21.27Z"/><path class="cls-1" d="M37.08,29.71c.8,4.19,1.35,7.72,1.35,7.72l-6-4.85Z"/><path class="cls-1" d="M22.59,32.83c-3.55,2.37-6.42,4.22-6.42,4.22l1.72-7.34Z"/></g></g></g></svg>
