<svg xmlns="http://www.w3.org/2000/svg" xmlns:xlink="http://www.w3.org/1999/xlink" viewBox="0 0 78.1 78.5"><defs><style>.cls-1{fill:#453f5f;}.cls-2{fill:#252249;}.cls-3{fill:url(#radial-gradient);}</style><radialGradient id="radial-gradient" cx="46.87" cy="49.37" r="44.79" gradientTransform="scale(1 1.02)" gradientUnits="userSpaceOnUse"><stop offset="0.22" stop-color="#163751" stop-opacity="0.65"/><stop offset="0.9" stop-color="#252249" stop-opacity="0.65"/></radialGradient></defs><title>planet 2</title><g id="Layer_2" data-name="Layer 2"><g id="Layer_6" data-name="Layer 6"><path class="cls-1" d="M45.77,1A39,39,0,0,0,0,39.45c0,1,.05,2.07.13,3.09a39,39,0,0,0,69.62,21A39,39,0,0,0,45.77,1Z"/><path class="cls-2" d="M63.5,49.25c-5.16-4.52-10.4-2.94-12-6.87-1.7-4.19,3.83-7,3.63-14.63C55,22.57,52.22,16.66,48.5,15.88c-3.25-.68-5,3-8,2.25-3.6-.94-6.42-7.62-4.62-11.75C37.23,3.26,41.22,1.59,45.77,1A39,39,0,0,0,0,39.45c0,1,.05,2.07.13,3.09A9.06,9.06,0,0,0,4.5,39.25c3.42-4.86.84-10.28,2.75-13,3.11-4.42,19.63-5.26,21.63-.5,1.16,2.78-3.12,4.73-4.63,11.75-1.7,7.91,1.38,16.35,3.88,16.5,2.93.18,3.5-11.13,7.75-11.62,4.79-.55,14.33,12.72,9.62,22-2.78,5.48-10.1,8.71-16,7.5-8.82-1.81-11.43-12.9-17.37-12-2,.3-3.13,1.8-4.15,3.22a39,39,0,0,0,61.77.47C68.85,60.18,68.7,53.8,63.5,49.25Z"/><ellipse class="cls-3" cx="39.03" cy="39.25" rx="38.35" ry="39.25"/></g></g></svg>