<svg xmlns="http://www.w3.org/2000/svg" xmlns:xlink="http://www.w3.org/1999/xlink" viewBox="0 0 73.25 31.63"><defs><style>.cls-1{fill:#d82435;}.cls-2{fill:url(#linear-gradient);}.cls-3{fill:url(#linear-gradient-2);}.cls-4{fill:url(#linear-gradient-3);}.cls-5{fill:#820614;}</style><linearGradient id="linear-gradient" x1="11.87" y1="2.37" x2="2.13" y2="12.11" gradientTransform="translate(2.4 -1.72) rotate(16.86)" gradientUnits="userSpaceOnUse"><stop offset="0" stop-color="#820614"/><stop offset="1" stop-color="#d82435" stop-opacity="0"/></linearGradient>
<linearGradient id="linear-gradient-2" x1="18.77" y1="22.33" x2="9.03" y2="32.07" gradientTransform="translate(8.49 -2.86) rotate(16.86)"
   xlink:href="#linear-gradient"/><linearGradient id="linear-gradient-3" x1="15.38" y1="12.4" x2="5.64" y2="22.14"
    gradientTransform="translate(5.46 -2.31) rotate(16.86)" xlink:href="#linear-gradient"/>
  </defs><title>scout ship</title><g id="Layer_2" data-name="Layer 2"><g id="Layer_4" data-name="Layer 4">
  <g id="scout_ship" data-name="scout ship">
    <path class="cls-1" d="M12.41,0H70a3.25,3.25,0,0,1,1.46,6.16l-48.2,24.2a3.25,3.25,0,0,1-4.49-1.73L9.38,4.43A3.25,3.25,0,0,1,12.41,0Z"/>
    <rect class="cls-2" x="0.24" y="4.34" width="13.52" height="5.8" rx="1.25" ry="1.25" transform="translate(-1.8 2.34) rotate(-16.86)"/><rect class="cls-3" x="7.14" y="24.3" width="13.52" height="5.8" rx="1.25" ry="1.25" transform="translate(-7.29 5.2) rotate(-16.86)"/><rect class="cls-4" x="3.75" y="14.37" width="13.52" height="5.8" rx="1.25" ry="1.25" transform="translate(-4.56 3.79) rotate(-16.86)"/><path class="cls-5" d="M42.1,13.37l-5.27-.84a1.82,1.82,0,0,1-1.26-2.74L38.49,5a1.82,1.82,0,0,1,2-.83l5.24,1.26A1.81,1.81,0,0,1,46.8,8.19l-2.89,4.39A1.84,1.84,0,0,1,42.1,13.37Z"/></g></g></g></svg>
