<?xml version="1.0" encoding="utf-8"?>
<!-- Generator: Adobe Illustrator 22.0.0, SVG Export Plug-In . SVG Version: 6.00 Build 0)  -->
<svg version="1.1" id="Layer_1" xmlns="http://www.w3.org/2000/svg" xmlns:xlink="http://www.w3.org/1999/xlink" x="0px" y="0px"
	 viewBox="0 0 216 216" style="enable-background:new 0 0 216 216;" xml:space="preserve">
<style type="text/css">
	.st0{fill:#726658;}
	.st1{fill:none;stroke:#594A42;stroke-miterlimit:10;}
</style>
<g id="asteroids">
	<path class="st0" d="M49.9,109c0-7.4,2.9-9.3,4.5-9.8c3-0.9,7.9-1.1,9.3,1.7c1.8,3.3-2.7,6.6-1,10.3c1.6,3.4,6.1,2.5,8,5.8
		c2.2,3.9-2,12.7-7,13.3c-5.3,0.7-7.8-2.5-10.1-11.8C53.1,116.1,49.9,114,49.9,109z"/>
	<path class="st0" d="M73.5,71.6c-2,4.1-1.5,10.4,1.9,13.8c4.1,4.1,10.2,1.5,13.8,6.1c2.3,3,0.7,5.2,2.6,7.4
		c4.3,4.8,20.1,2.9,24.5-5.6c4.4-8.6-4.2-21.1-13.8-26C92.5,62.2,77.5,63.6,73.5,71.6z"/>
	<path class="st0" d="M94.8,125.3c-5.1,2.8-7.1,12.5-2.6,18.1c2.2,2.7,6.3,5.2,10,4.3c4.3-1.1,4.6-6,8.4-6.4c3.2-0.3,4,3.1,8.8,4.8
		c4.5,1.5,11.1,1,13-2.5c1.9-3.6-1.3-9.9-5.8-12.5c-5.1-3-8.4,0.8-15.8-2.5c-3.2-1.4-4.1-2.8-7.8-3.6
		C101,124.5,97.6,123.7,94.8,125.3z"/>
	<path class="st0" d="M138,93.6c-3.5,1.9-5.5,8-3.6,12.8c2.3,5.6,9.2,7.4,13.4,6.6c2.2-0.4,2.7-1.3,5.8-1.6c4.2-0.4,5.4,1.1,7.6,0.3
		c3.1-1.1,4.8-5.6,4.8-9c0-6-5.4-11.4-10.1-11.6c-2.5-0.1-2.6,1.2-6.8,2.1C143,94.4,140.9,92.1,138,93.6z"/>
	<ellipse class="st0" cx="76.6" cy="154.3" rx="7.6" ry="7.1"/>
	<ellipse class="st0" cx="128.1" cy="61.6" rx="6.5" ry="7.1"/>
	<ellipse class="st1" cx="89.6" cy="74.1" rx="4.8" ry="3.5"/>
	<ellipse class="st1" cx="101.8" cy="91" rx="4.6" ry="3.8"/>
	<ellipse class="st1" cx="129.7" cy="58.5" rx="1.6" ry="1.1"/>
	<ellipse class="st1" cx="142.2" cy="105.8" rx="2.8" ry="3.8"/>
	<ellipse class="st1" cx="157.3" cy="100.1" rx="4.8" ry="3.9"/>
	<ellipse class="st1" cx="121.6" cy="137.4" rx="2.6" ry="2"/>
	<ellipse class="st1" cx="96.6" cy="141.3" rx="3.3" ry="2.5"/>
	<ellipse class="st1" cx="78.3" cy="153.9" rx="1.7" ry="2.4"/>
	<ellipse class="st1" cx="53.8" cy="105.6" rx="2.1" ry="4.1"/>
	<ellipse class="st1" cx="64.6" cy="120.7" rx="3.4" ry="2.6"/>
</g>
</svg>
