<?xml version="1.0" encoding="utf-8"?>
<!-- Generator: Adobe Illustrator 22.0.0, SVG Export Plug-In . SVG Version: 6.00 Build 0)  -->
<svg version="1.1" id="Layer_1" xmlns="http://www.w3.org/2000/svg" xmlns:xlink="http://www.w3.org/1999/xlink" x="0px" y="0px"
	 viewBox="0 0 216 216" style="enable-background:new 0 0 216 216;" xml:space="preserve">
<style type="text/css">
	.st0{fill:#BF6E1C;}
	.st1{fill:#BC521D;}
</style>
<g id="gas_giant">
	<circle class="st0" cx="110" cy="108" r="39.1"/>
	<path class="st1" d="M162.4,85.2c-2.9-6.4-13.2-8.6-27-6.9c1.9,1.6,3.7,3.4,5.2,5.4c6.5-0.4,10.9,0.7,12.2,3.5
		c1.2,2.7-0.7,6.5-5,10.8c-6.6,6.8-18.9,14.7-33.8,21.4c-13.7,6.1-26.7,9.9-36,10.8c-7.4,0.7-12.6-0.3-13.9-3.3
		c-1.4-3.1,1.5-7.9,7.4-13.1c-0.3-1.9-0.4-3.8-0.4-5.8c0-0.7,0-1.4,0.1-2c-12.3,9.9-18.8,20.2-15.7,27.2c3.2,7.1,15.4,9.1,31.5,6.3
		c9.4-1.6,20.2-4.9,31.2-9.8c12.4-5.6,23.1-12.3,31-19.1C159.8,101.1,165.3,91.7,162.4,85.2z"/>
</g>
</svg>
