<?xml version="1.0" encoding="utf-8"?>
<!-- Generator: Adobe Illustrator 22.0.0, SVG Export Plug-In . SVG Version: 6.00 Build 0)  -->
<svg version="1.1" id="Layer_1" xmlns="http://www.w3.org/2000/svg" xmlns:xlink="http://www.w3.org/1999/xlink" x="0px" y="0px"
	 viewBox="0 0 216 216" style="enable-background:new 0 0 216 216;" xml:space="preserve">
<style type="text/css">
	.st0{fill:none;}
	.st1{fill:#D1D3D4;}
</style>
<g id="nebula">
	<g>
		<g>
			<rect x="148.8" y="89" class="st0" width="2.9" height="2.9"/>
			<path class="st1" d="M151.6,90.4c0,0.8-0.6,1.4-1.4,1.4c-0.8,0-1.4-0.6-1.4-1.4s0.6-1.4,1.4-1.4C151,89,151.6,89.6,151.6,90.4z"
				/>
		</g>
		<g>
			<rect x="141.1" y="89.6" class="st0" width="2.8" height="2.8"/>
			<path class="st1" d="M143.8,91c0,0.8-0.6,1.4-1.4,1.4c-0.8,0-1.4-0.6-1.4-1.4c0-0.8,0.6-1.4,1.4-1.4
				C143.2,89.6,143.8,90.2,143.8,91z"/>
		</g>
		<g>
			<rect x="140.6" y="94.4" class="st0" width="2.3" height="2.3"/>
			<path class="st1" d="M142.9,95.6c0,0.6-0.5,1.1-1.1,1.1c-0.6,0-1.1-0.5-1.1-1.1c0-0.6,0.5-1.1,1.1-1.1
				C142.4,94.4,142.9,94.9,142.9,95.6z"/>
		</g>
		<g>
			<rect x="127.8" y="88.3" class="st0" width="4.1" height="4.1"/>
			<path class="st1" d="M132,90.4c0,1.1-0.9,2.1-2.1,2.1c-1.1,0-2.1-0.9-2.1-2.1s0.9-2.1,2.1-2.1C131,88.3,132,89.2,132,90.4z"/>
		</g>
		<g>
			<rect x="132.9" y="99.4" class="st0" width="2" height="2"/>
			<path class="st1" d="M134.9,100.4c0,0.6-0.4,1-1,1c-0.6,0-1-0.4-1-1c0-0.6,0.4-1,1-1C134.5,99.4,134.9,99.9,134.9,100.4z"/>
		</g>
		<g>
			<rect x="130" y="102.3" class="st0" width="3.1" height="3.1"/>
			<path class="st1" d="M133.1,103.9c0,0.9-0.7,1.5-1.5,1.5c-0.9,0-1.5-0.7-1.5-1.5c0-0.9,0.7-1.5,1.5-1.5
				C132.4,102.3,133.1,103,133.1,103.9z"/>
		</g>
		<g>
			<rect x="126.9" y="105.9" class="st0" width="2.1" height="2.1"/>
			<path class="st1" d="M129,107c0,0.6-0.5,1.1-1.1,1.1c-0.6,0-1.1-0.5-1.1-1.1s0.5-1.1,1.1-1.1C128.5,105.9,129,106.4,129,107z"/>
		</g>
		<g>
			<rect x="133.1" y="111" class="st0" width="3.4" height="3.4"/>
			<path class="st1" d="M136.5,112.7c0,0.9-0.8,1.7-1.7,1.7c-0.9,0-1.7-0.8-1.7-1.7s0.8-1.7,1.7-1.7
				C135.7,111,136.5,111.8,136.5,112.7z"/>
		</g>
		<g>
			<rect x="127.6" y="119.9" class="st0" width="3.2" height="3.2"/>
			<path class="st1" d="M130.8,121.5c0,0.9-0.7,1.6-1.6,1.6c-0.9,0-1.6-0.7-1.6-1.6s0.7-1.6,1.6-1.6
				C130.1,119.9,130.8,120.6,130.8,121.5z"/>
		</g>
		<g>
			<rect x="122.6" y="119.5" class="st0" width="2.2" height="2.2"/>
			<path class="st1" d="M124.8,120.6c0,0.6-0.5,1.1-1.1,1.1c-0.6,0-1.1-0.5-1.1-1.1s0.5-1.1,1.1-1.1
				C124.3,119.5,124.8,120,124.8,120.6z"/>
		</g>
		<g>
			<rect x="117.3" y="120.3" class="st0" width="1.8" height="1.8"/>
			<path class="st1" d="M119.1,121.2c0,0.5-0.4,0.9-0.9,0.9c-0.5,0-0.9-0.4-0.9-0.9s0.4-0.9,0.9-0.9
				C118.7,120.3,119.1,120.7,119.1,121.2z"/>
		</g>
		<g>
			<rect x="113.8" y="128.2" class="st0" width="2.8" height="2.8"/>
			<path class="st1" d="M116.6,129.6c0,0.8-0.6,1.4-1.4,1.4c-0.8,0-1.4-0.6-1.4-1.4c0-0.8,0.6-1.4,1.4-1.4
				C116,128.2,116.6,128.9,116.6,129.6z"/>
		</g>
		<g>
			<rect x="107.7" y="120.9" class="st0" width="2.4" height="2.4"/>
			<path class="st1" d="M110.2,122.1c0,0.7-0.5,1.2-1.2,1.2c-0.7,0-1.2-0.5-1.2-1.2c0-0.7,0.5-1.2,1.2-1.2
				C109.6,120.9,110.2,121.5,110.2,122.1z"/>
		</g>
		<g>
			<rect x="103.3" y="115.7" class="st0" width="2" height="2"/>
			<path class="st1" d="M105.3,116.7c0,0.6-0.5,1-1,1c-0.6,0-1-0.5-1-1s0.5-1,1-1C104.8,115.7,105.3,116.1,105.3,116.7z"/>
		</g>
		<g>
			<rect x="100.2" y="123.6" class="st0" width="3.4" height="3.4"/>
			<path class="st1" d="M103.7,125.3c0,1-0.8,1.7-1.7,1.7c-1,0-1.7-0.8-1.7-1.7s0.8-1.7,1.7-1.7
				C102.9,123.6,103.7,124.4,103.7,125.3z"/>
		</g>
		<g>
			<rect x="96.5" y="124" class="st0" width="1.8" height="1.8"/>
			<path class="st1" d="M98.4,124.9c0,0.5-0.4,0.9-0.9,0.9c-0.5,0-0.9-0.4-0.9-0.9s0.4-0.9,0.9-0.9C97.9,124,98.4,124.4,98.4,124.9z
				"/>
		</g>
		<g>
			<rect x="91.3" y="131.6" class="st0" width="4.6" height="4.6"/>
			<path class="st1" d="M95.8,133.8c0,1.3-1,2.3-2.3,2.3c-1.3,0-2.3-1-2.3-2.3c0-1.3,1-2.3,2.3-2.3
				C94.8,131.6,95.8,132.6,95.8,133.8z"/>
		</g>
		<g>
			<rect x="87.1" y="134.2" class="st0" width="2.8" height="2.8"/>
			<path class="st1" d="M89.9,135.6c0,0.8-0.6,1.4-1.4,1.4c-0.8,0-1.4-0.6-1.4-1.4s0.6-1.4,1.4-1.4
				C89.2,134.2,89.9,134.8,89.9,135.6z"/>
		</g>
		<g>
			<rect x="82.9" y="116.4" class="st0" width="3.8" height="3.8"/>
			<path class="st1" d="M86.8,118.4c0,1.1-0.9,1.9-1.9,1.9c-1.1,0-1.9-0.9-1.9-1.9c0-1.1,0.9-1.9,1.9-1.9
				C85.9,116.4,86.8,117.3,86.8,118.4z"/>
		</g>
		<g>
			<rect x="78" y="119.9" class="st0" width="3.7" height="3.7"/>
			<path class="st1" d="M81.8,121.8c0,1-0.8,1.9-1.9,1.9c-1,0-1.9-0.8-1.9-1.9c0-1,0.8-1.9,1.9-1.9
				C80.9,119.9,81.8,120.8,81.8,121.8z"/>
		</g>
		<g>
			<rect x="70.7" y="123.9" class="st0" width="4.2" height="4.2"/>
			<path class="st1" d="M74.8,126c0,1.1-0.9,2.1-2.1,2.1c-1.1,0-2.1-0.9-2.1-2.1s0.9-2.1,2.1-2.1C73.9,123.9,74.8,124.8,74.8,126z"
				/>
		</g>
		<g>
			<rect x="62.9" y="120.1" class="st0" width="2.1" height="2.1"/>
			<path class="st1" d="M65,121.1c0,0.6-0.5,1-1,1c-0.6,0-1-0.5-1-1c0-0.6,0.5-1,1-1C64.5,120.1,65,120.6,65,121.1z"/>
		</g>
		<g>
			<rect x="63.3" y="114.5" class="st0" width="4" height="4"/>
			<path class="st1" d="M67.3,116.5c0,1.1-0.9,2-2,2c-1.1,0-2-0.9-2-2c0-1.1,0.9-2,2-2C66.4,114.5,67.3,115.4,67.3,116.5z"/>
		</g>
		<g>
			<rect x="59.4" y="107.3" class="st0" width="1.8" height="1.8"/>
			<path class="st1" d="M61.2,108.2c0,0.5-0.4,0.9-0.9,0.9c-0.5,0-0.9-0.4-0.9-0.9s0.4-0.9,0.9-0.9
				C60.8,107.3,61.2,107.7,61.2,108.2z"/>
		</g>
		<g>
			<rect x="66.4" y="102.9" class="st0" width="1.9" height="1.9"/>
			<path class="st1" d="M68.3,103.8c0,0.5-0.4,1-1,1c-0.5,0-1-0.4-1-1c0-0.5,0.4-1,1-1C67.8,102.9,68.3,103.3,68.3,103.8z"/>
		</g>
		<g>
			<rect x="65.4" y="95.7" class="st0" width="3.3" height="3.3"/>
			<path class="st1" d="M68.7,97.3c0,0.9-0.7,1.6-1.6,1.6c-0.9,0-1.6-0.7-1.6-1.6c0-0.9,0.7-1.6,1.6-1.6
				C68,95.7,68.7,96.4,68.7,97.3z"/>
		</g>
		<g>
			<rect x="74.9" y="93.9" class="st0" width="3.3" height="3.3"/>
			<path class="st1" d="M78.1,95.6c0,0.9-0.7,1.6-1.6,1.6c-0.9,0-1.6-0.7-1.6-1.6s0.7-1.6,1.6-1.6C77.4,93.9,78.1,94.7,78.1,95.6z"
				/>
		</g>
		<g>
			<rect x="72.4" y="88.2" class="st0" width="1.9" height="1.9"/>
			<path class="st1" d="M74.3,89.2c0,0.5-0.4,0.9-0.9,0.9c-0.5,0-0.9-0.4-0.9-0.9c0-0.5,0.4-0.9,0.9-0.9
				C73.9,88.2,74.3,88.7,74.3,89.2z"/>
		</g>
		<g>
			<rect x="66.6" y="81.3" class="st0" width="2.1" height="2.1"/>
			<path class="st1" d="M68.7,82.4c0,0.6-0.5,1.1-1.1,1.1c-0.6,0-1.1-0.5-1.1-1.1c0-0.6,0.5-1.1,1.1-1.1
				C68.2,81.3,68.7,81.8,68.7,82.4z"/>
		</g>
		<g>
			<rect x="73.1" y="79.4" class="st0" width="3.7" height="3.7"/>
			<path class="st1" d="M76.7,81.2c0,1-0.8,1.8-1.8,1.8c-1,0-1.8-0.8-1.8-1.8c0-1,0.8-1.8,1.8-1.8C75.9,79.4,76.7,80.2,76.7,81.2z"
				/>
		</g>
		<g>
			<rect x="75" y="72" class="st0" width="3.5" height="3.5"/>
			<path class="st1" d="M78.5,73.8c0,1-0.8,1.8-1.8,1.8c-1,0-1.8-0.8-1.8-1.8s0.8-1.8,1.8-1.8C77.7,72,78.5,72.8,78.5,73.8z"/>
		</g>
		<g>
			<rect x="86.8" y="76.4" class="st0" width="3.1" height="3.1"/>
			<path class="st1" d="M89.9,78c0,0.9-0.7,1.6-1.6,1.6c-0.9,0-1.6-0.7-1.6-1.6c0-0.9,0.7-1.6,1.6-1.6C89.2,76.4,89.9,77.1,89.9,78z
				"/>
		</g>
		<g>
			<rect x="91.5" y="74" class="st0" width="2.7" height="2.7"/>
			<path class="st1" d="M94.2,75.3c0,0.7-0.6,1.3-1.3,1.3c-0.7,0-1.3-0.6-1.3-1.3c0-0.7,0.6-1.3,1.3-1.3
				C93.6,74,94.2,74.5,94.2,75.3z"/>
		</g>
		<g>
			<rect x="91.4" y="64" class="st0" width="2.6" height="2.6"/>
			<path class="st1" d="M94,65.3c0,0.7-0.6,1.3-1.3,1.3c-0.7,0-1.3-0.6-1.3-1.3c0-0.7,0.6-1.3,1.3-1.3C93.4,64,94,64.6,94,65.3z"/>
		</g>
		<g>
			<rect x="98.7" y="65.2" class="st0" width="2.3" height="2.3"/>
			<path class="st1" d="M101,66.3c0,0.6-0.5,1.1-1.1,1.1c-0.6,0-1.1-0.5-1.1-1.1s0.5-1.1,1.1-1.1C100.4,65.2,101,65.7,101,66.3z"/>
		</g>
		<g>
			<rect x="101.2" y="60.9" class="st0" width="2.7" height="2.7"/>
			<path class="st1" d="M103.9,62.2c0,0.7-0.6,1.3-1.3,1.3c-0.7,0-1.3-0.6-1.3-1.3s0.6-1.3,1.3-1.3
				C103.3,60.9,103.9,61.5,103.9,62.2z"/>
		</g>
		<g>
			<rect x="105.8" y="58.4" class="st0" width="2.6" height="2.6"/>
			<path class="st1" d="M108.4,59.7c0,0.7-0.6,1.3-1.3,1.3c-0.7,0-1.3-0.6-1.3-1.3c0-0.7,0.6-1.3,1.3-1.3
				C107.8,58.4,108.4,59,108.4,59.7z"/>
		</g>
		<g>
			<rect x="111.2" y="58.4" class="st0" width="1.8" height="1.8"/>
			<path class="st1" d="M113,59.3c0,0.5-0.4,0.9-0.9,0.9c-0.5,0-0.9-0.4-0.9-0.9s0.4-0.9,0.9-0.9C112.6,58.4,113,58.8,113,59.3z"/>
		</g>
		<g>
			<rect x="112.2" y="49.9" class="st0" width="4.1" height="4.1"/>
			<path class="st1" d="M116.3,51.9c0,1.1-0.9,2.1-2.1,2.1c-1.1,0-2.1-0.9-2.1-2.1c0-1.1,0.9-2.1,2.1-2.1
				C115.4,49.9,116.3,50.8,116.3,51.9z"/>
		</g>
		<g>
			<rect x="121.9" y="59.8" class="st0" width="2" height="2"/>
			<path class="st1" d="M124,60.9c0,0.6-0.5,1-1,1c-0.6,0-1-0.5-1-1s0.5-1,1-1C123.5,59.8,124,60.3,124,60.9z"/>
		</g>
		<g>
			<rect x="122.5" y="47.7" class="st0" width="2.5" height="2.5"/>
			<path class="st1" d="M125,49c0,0.7-0.6,1.2-1.2,1.2c-0.7,0-1.2-0.6-1.2-1.2s0.6-1.2,1.2-1.2C124.4,47.7,125,48.3,125,49z"/>
		</g>
		<g>
			<rect x="126.1" y="59.9" class="st0" width="4.4" height="4.4"/>
			<path class="st1" d="M130.5,62.1c0,1.2-1,2.2-2.2,2.2c-1.2,0-2.2-1-2.2-2.2s1-2.2,2.2-2.2C129.5,59.9,130.5,60.9,130.5,62.1z"/>
		</g>
		<g>
			<rect x="130.9" y="46.5" class="st0" width="3.7" height="3.7"/>
			<path class="st1" d="M134.6,48.4c0,1-0.8,1.9-1.9,1.9c-1,0-1.9-0.8-1.9-1.9s0.8-1.9,1.9-1.9C133.8,46.5,134.6,47.3,134.6,48.4z"
				/>
		</g>
		<g>
			<rect x="129.2" y="54.8" class="st0" width="2.4" height="2.4"/>
			<path class="st1" d="M131.6,56c0,0.7-0.5,1.2-1.2,1.2c-0.7,0-1.2-0.5-1.2-1.2c0-0.7,0.5-1.2,1.2-1.2
				C131.1,54.8,131.6,55.4,131.6,56z"/>
		</g>
		<g>
			<rect x="130.8" y="60.8" class="st0" width="3" height="3"/>
			<path class="st1" d="M133.8,62.3c0,0.8-0.7,1.5-1.5,1.5c-0.8,0-1.5-0.7-1.5-1.5s0.7-1.5,1.5-1.5
				C133.1,60.8,133.8,61.5,133.8,62.3z"/>
		</g>
		<g>
			<rect x="118.9" y="57.6" class="st0" width="4.5" height="4.5"/>
			<path class="st1" d="M123.4,59.9c0,1.2-1,2.2-2.2,2.2c-1.2,0-2.2-1-2.2-2.2c0-1.2,1-2.2,2.2-2.2
				C122.4,57.6,123.4,58.6,123.4,59.9z"/>
		</g>
		<g>
			<rect x="121.2" y="66.9" class="st0" width="3.7" height="3.7"/>
			<path class="st1" d="M125,68.7c0,1-0.8,1.9-1.9,1.9c-1,0-1.9-0.8-1.9-1.9s0.8-1.9,1.9-1.9C124.1,66.9,125,67.7,125,68.7z"/>
		</g>
		<g>
			<rect x="116.5" y="71.7" class="st0" width="1.9" height="1.9"/>
			<path class="st1" d="M118.4,72.6c0,0.5-0.4,1-1,1c-0.5,0-1-0.4-1-1c0-0.5,0.4-1,1-1C118,71.7,118.4,72.1,118.4,72.6z"/>
		</g>
		<g>
			<rect x="114.4" y="74.3" class="st0" width="2.8" height="2.8"/>
			<path class="st1" d="M117.2,75.7c0,0.8-0.6,1.4-1.4,1.4c-0.8,0-1.4-0.6-1.4-1.4s0.6-1.4,1.4-1.4
				C116.6,74.3,117.2,74.9,117.2,75.7z"/>
		</g>
		<g>
			<rect x="119.7" y="79.1" class="st0" width="4.3" height="4.3"/>
			<path class="st1" d="M124,81.2c0,1.2-1,2.1-2.1,2.1c-1.2,0-2.1-1-2.1-2.1s1-2.1,2.1-2.1C123,79.1,124,80,124,81.2z"/>
		</g>
		<g>
			<rect x="115.6" y="85" class="st0" width="3.4" height="3.4"/>
			<path class="st1" d="M118.9,86.7c0,0.9-0.8,1.7-1.7,1.7c-0.9,0-1.7-0.8-1.7-1.7s0.8-1.7,1.7-1.7C118.2,85,118.9,85.8,118.9,86.7z
				"/>
		</g>
		<g>
			<rect x="124.5" y="85.6" class="st0" width="3.3" height="3.3"/>
			<path class="st1" d="M127.8,87.3c0,0.9-0.7,1.7-1.7,1.7c-0.9,0-1.7-0.7-1.7-1.7s0.7-1.7,1.7-1.7
				C127.1,85.6,127.8,86.3,127.8,87.3z"/>
		</g>
		<g>
			<rect x="126.8" y="88.4" class="st0" width="2.7" height="2.7"/>
			<path class="st1" d="M129.5,89.8c0,0.8-0.6,1.4-1.4,1.4c-0.8,0-1.4-0.6-1.4-1.4s0.6-1.4,1.4-1.4
				C128.9,88.4,129.5,89.1,129.5,89.8z"/>
		</g>
		<g>
			<rect x="129.7" y="91.8" class="st0" width="2.2" height="2.2"/>
			<path class="st1" d="M131.9,92.9c0,0.6-0.5,1.1-1.1,1.1c-0.6,0-1.1-0.5-1.1-1.1c0-0.6,0.5-1.1,1.1-1.1
				C131.4,91.8,131.9,92.3,131.9,92.9z"/>
		</g>
		<g>
			<rect x="133" y="83.9" class="st0" width="3.8" height="3.8"/>
			<path class="st1" d="M136.8,85.8c0,1.1-0.9,1.9-1.9,1.9c-1.1,0-1.9-0.9-1.9-1.9c0-1.1,0.9-1.9,1.9-1.9
				C136,83.9,136.8,84.8,136.8,85.8z"/>
		</g>
		<g>
			<rect x="136.9" y="88.7" class="st0" width="2.6" height="2.6"/>
			<path class="st1" d="M139.5,90c0,0.7-0.6,1.3-1.3,1.3c-0.7,0-1.3-0.6-1.3-1.3s0.6-1.3,1.3-1.3C138.9,88.7,139.5,89.3,139.5,90z"
				/>
		</g>
		<g>
			<rect x="142.3" y="89.4" class="st0" width="3.2" height="3.2"/>
			<path class="st1" d="M145.5,91c0,0.9-0.7,1.6-1.6,1.6c-0.9,0-1.6-0.7-1.6-1.6s0.7-1.6,1.6-1.6C144.8,89.4,145.5,90.1,145.5,91z"
				/>
		</g>
		<g>
			<rect x="147.3" y="100.8" class="st0" width="3" height="3"/>
			<path class="st1" d="M150.3,102.3c0,0.8-0.7,1.5-1.5,1.5c-0.8,0-1.5-0.7-1.5-1.5c0-0.8,0.7-1.5,1.5-1.5
				C149.7,100.8,150.3,101.4,150.3,102.3z"/>
		</g>
		<g>
			<rect x="157.9" y="90.2" class="st0" width="2.5" height="2.5"/>
			<path class="st1" d="M160.5,91.5c0,0.7-0.6,1.3-1.3,1.3c-0.7,0-1.3-0.6-1.3-1.3c0-0.7,0.6-1.3,1.3-1.3
				C159.9,90.2,160.5,90.8,160.5,91.5z"/>
		</g>
		<g>
			<rect x="163.6" y="104.4" class="st0" width="2.3" height="2.3"/>
			<path class="st1" d="M165.9,105.6c0,0.6-0.5,1.2-1.2,1.2c-0.6,0-1.2-0.5-1.2-1.2c0-0.6,0.5-1.2,1.2-1.2
				C165.4,104.4,165.9,104.9,165.9,105.6z"/>
		</g>
		<g>
			<rect x="153.8" y="103" class="st0" width="4.4" height="4.4"/>
			<path class="st1" d="M158.2,105.2c0,1.2-1,2.2-2.2,2.2c-1.2,0-2.2-1-2.2-2.2s1-2.2,2.2-2.2C157.2,103,158.2,104,158.2,105.2z"/>
		</g>
		<g>
			<rect x="153.4" y="109.6" class="st0" width="2.4" height="2.4"/>
			<path class="st1" d="M155.8,110.8c0,0.7-0.5,1.2-1.2,1.2c-0.7,0-1.2-0.5-1.2-1.2s0.5-1.2,1.2-1.2
				C155.3,109.6,155.8,110.1,155.8,110.8z"/>
		</g>
		<g>
			<rect x="149.5" y="111.2" class="st0" width="3.7" height="3.7"/>
			<path class="st1" d="M153.3,113c0,1-0.8,1.9-1.9,1.9c-1,0-1.9-0.8-1.9-1.9c0-1,0.8-1.9,1.9-1.9C152.4,111.2,153.3,112,153.3,113z
				"/>
		</g>
		<g>
			<rect x="145.1" y="113.5" class="st0" width="2.1" height="2.1"/>
			<path class="st1" d="M147.2,114.6c0,0.6-0.5,1.1-1.1,1.1c-0.6,0-1.1-0.5-1.1-1.1s0.5-1.1,1.1-1.1
				C146.7,113.5,147.2,114,147.2,114.6z"/>
		</g>
		<g>
			<rect x="139.9" y="113.7" class="st0" width="3.6" height="3.6"/>
			<path class="st1" d="M143.5,115.5c0,1-0.8,1.8-1.8,1.8c-1,0-1.8-0.8-1.8-1.8c0-1,0.8-1.8,1.8-1.8
				C142.7,113.7,143.5,114.5,143.5,115.5z"/>
		</g>
		<g>
			<rect x="143.5" y="123.7" class="st0" width="2.4" height="2.4"/>
			<path class="st1" d="M145.9,124.9c0,0.7-0.5,1.2-1.2,1.2c-0.7,0-1.2-0.5-1.2-1.2c0-0.7,0.5-1.2,1.2-1.2
				C145.4,123.7,145.9,124.2,145.9,124.9z"/>
		</g>
		<g>
			<rect x="138.7" y="126.5" class="st0" width="4.6" height="4.6"/>
			<path class="st1" d="M143.2,128.7c0,1.3-1,2.3-2.3,2.3c-1.3,0-2.3-1-2.3-2.3s1-2.3,2.3-2.3C142.2,126.5,143.2,127.5,143.2,128.7z
				"/>
		</g>
		<g>
			<rect x="143" y="133.1" class="st0" width="2.3" height="2.3"/>
			<path class="st1" d="M145.3,134.2c0,0.6-0.5,1.2-1.2,1.2c-0.6,0-1.2-0.5-1.2-1.2s0.5-1.2,1.2-1.2
				C144.8,133.1,145.3,133.6,145.3,134.2z"/>
		</g>
		<g>
			<rect x="149.8" y="136.9" class="st0" width="4.6" height="4.6"/>
			<path class="st1" d="M154.4,139.2c0,1.3-1,2.3-2.3,2.3c-1.3,0-2.3-1-2.3-2.3c0-1.3,1-2.3,2.3-2.3
				C153.4,136.9,154.4,137.9,154.4,139.2z"/>
		</g>
		<g>
			<rect x="136.9" y="140.6" class="st0" width="1.9" height="1.9"/>
			<path class="st1" d="M138.9,141.5c0,0.5-0.4,1-1,1c-0.5,0-1-0.4-1-1s0.4-1,1-1C138.4,140.6,138.9,141,138.9,141.5z"/>
		</g>
		<g>
			<rect x="134.2" y="143.4" class="st0" width="2.4" height="2.4"/>
			<path class="st1" d="M136.7,144.6c0,0.7-0.5,1.2-1.2,1.2c-0.7,0-1.2-0.5-1.2-1.2s0.5-1.2,1.2-1.2
				C136.1,143.4,136.7,143.9,136.7,144.6z"/>
		</g>
		<g>
			<rect x="134.9" y="147.2" class="st0" width="4.4" height="4.4"/>
			<path class="st1" d="M139.3,149.4c0,1.2-1,2.2-2.2,2.2c-1.2,0-2.2-1-2.2-2.2s1-2.2,2.2-2.2C138.3,147.2,139.3,148.2,139.3,149.4z
				"/>
		</g>
		<g>
			<rect x="130.6" y="149.4" class="st0" width="3.6" height="3.6"/>
			<path class="st1" d="M134.1,151.1c0,1-0.8,1.8-1.8,1.8c-1,0-1.8-0.8-1.8-1.8c0-1,0.8-1.8,1.8-1.8
				C133.3,149.4,134.1,150.2,134.1,151.1z"/>
		</g>
		<g>
			<rect x="133.1" y="156" class="st0" width="3.3" height="3.3"/>
			<path class="st1" d="M136.4,157.7c0,0.9-0.7,1.7-1.7,1.7c-0.9,0-1.7-0.7-1.7-1.7s0.7-1.7,1.7-1.7
				C135.7,156,136.4,156.7,136.4,157.7z"/>
		</g>
		<g>
			<rect x="129.9" y="162" class="st0" width="2" height="2"/>
			<path class="st1" d="M131.9,163c0,0.5-0.4,1-1,1c-0.5,0-1-0.4-1-1s0.4-1,1-1C131.4,162,131.9,162.4,131.9,163z"/>
		</g>
		<g>
			<rect x="122.1" y="162.1" class="st0" width="3.2" height="3.2"/>
			<path class="st1" d="M125.2,163.7c0,0.9-0.7,1.6-1.6,1.6c-0.9,0-1.6-0.7-1.6-1.6s0.7-1.6,1.6-1.6
				C124.5,162.1,125.2,162.8,125.2,163.7z"/>
		</g>
		<g>
			<rect x="117.7" y="163" class="st0" width="3.4" height="3.4"/>
			<path class="st1" d="M121.1,164.7c0,0.9-0.8,1.7-1.7,1.7c-0.9,0-1.7-0.8-1.7-1.7s0.8-1.7,1.7-1.7
				C120.3,163,121.1,163.7,121.1,164.7z"/>
		</g>
		<g>
			<rect x="113.8" y="163.6" class="st0" width="2.2" height="2.2"/>
			<path class="st1" d="M116,164.6c0,0.6-0.5,1.1-1.1,1.1c-0.6,0-1.1-0.5-1.1-1.1s0.5-1.1,1.1-1.1C115.5,163.6,116,164,116,164.6z"
				/>
		</g>
		<g>
			<rect x="109.9" y="156" class="st0" width="2.5" height="2.5"/>
			<path class="st1" d="M112.4,157.2c0,0.7-0.6,1.2-1.2,1.2c-0.7,0-1.2-0.6-1.2-1.2c0-0.7,0.6-1.2,1.2-1.2
				C111.9,156,112.4,156.6,112.4,157.2z"/>
		</g>
		<g>
			<rect x="104.3" y="161" class="st0" width="3" height="3"/>
			<path class="st1" d="M107.3,162.5c0,0.8-0.7,1.5-1.5,1.5c-0.8,0-1.5-0.7-1.5-1.5s0.7-1.5,1.5-1.5
				C106.6,161,107.3,161.7,107.3,162.5z"/>
		</g>
		<g>
			<rect x="99.9" y="160.7" class="st0" width="3.3" height="3.3"/>
			<path class="st1" d="M103.2,162.3c0,0.9-0.7,1.6-1.6,1.6c-0.9,0-1.6-0.7-1.6-1.6s0.7-1.6,1.6-1.6
				C102.5,160.7,103.2,161.4,103.2,162.3z"/>
		</g>
		<g>
			<rect x="92.7" y="163.9" class="st0" width="4.6" height="4.6"/>
			<path class="st1" d="M97.3,166.2c0,1.3-1,2.3-2.3,2.3c-1.3,0-2.3-1-2.3-2.3s1-2.3,2.3-2.3C96.2,163.9,97.3,165,97.3,166.2z"/>
		</g>
		<g>
			<rect x="89.3" y="158" class="st0" width="2.3" height="2.3"/>
			<path class="st1" d="M91.6,159.1c0,0.6-0.5,1.1-1.1,1.1c-0.6,0-1.1-0.5-1.1-1.1s0.5-1.1,1.1-1.1C91.1,158,91.6,158.5,91.6,159.1z
				"/>
		</g>
		<g>
			<rect x="82.2" y="166.6" class="st0" width="3.2" height="3.2"/>
			<path class="st1" d="M85.3,168.2c0,0.9-0.7,1.6-1.6,1.6c-0.9,0-1.6-0.7-1.6-1.6c0-0.9,0.7-1.6,1.6-1.6
				C84.6,166.6,85.3,167.3,85.3,168.2z"/>
		</g>
		<g>
			<rect x="76.2" y="163.4" class="st0" width="4.1" height="4.1"/>
			<path class="st1" d="M80.3,165.5c0,1.1-0.9,2-2,2c-1.1,0-2-0.9-2-2c0-1.1,0.9-2,2-2C79.4,163.4,80.3,164.3,80.3,165.5z"/>
		</g>
		<g>
			<rect x="69.1" y="159.8" class="st0" width="1.9" height="1.9"/>
			<path class="st1" d="M71,160.7c0,0.5-0.4,0.9-0.9,0.9c-0.5,0-0.9-0.4-0.9-0.9s0.4-0.9,0.9-0.9C70.6,159.8,71,160.2,71,160.7z"/>
		</g>
		<g>
			<rect x="63.9" y="157" class="st0" width="4.2" height="4.2"/>
			<path class="st1" d="M68.1,159.1c0,1.1-0.9,2.1-2.1,2.1c-1.1,0-2.1-0.9-2.1-2.1c0-1.1,0.9-2.1,2.1-2.1
				C67.2,157,68.1,158,68.1,159.1z"/>
		</g>
		<g>
			<rect x="61.5" y="147.8" class="st0" width="4.6" height="4.6"/>
			<path class="st1" d="M66.1,150.1c0,1.3-1,2.3-2.3,2.3c-1.3,0-2.3-1-2.3-2.3s1-2.3,2.3-2.3C65,147.8,66.1,148.8,66.1,150.1z"/>
		</g>
		<g>
			<rect x="60.9" y="143.6" class="st0" width="4.4" height="4.4"/>
			<path class="st1" d="M65.3,145.8c0,1.2-1,2.2-2.2,2.2c-1.2,0-2.2-1-2.2-2.2s1-2.2,2.2-2.2C64.3,143.6,65.3,144.5,65.3,145.8z"/>
		</g>
		<g>
			<rect x="61.4" y="137.3" class="st0" width="4.5" height="4.5"/>
			<path class="st1" d="M65.9,139.6c0,1.3-1,2.3-2.3,2.3c-1.3,0-2.3-1-2.3-2.3c0-1.3,1-2.3,2.3-2.3
				C64.9,137.3,65.9,138.3,65.9,139.6z"/>
		</g>
		<g>
			<rect x="52.8" y="141.4" class="st0" width="2.4" height="2.4"/>
			<path class="st1" d="M55.2,142.6c0,0.7-0.5,1.2-1.2,1.2c-0.7,0-1.2-0.5-1.2-1.2s0.5-1.2,1.2-1.2
				C54.7,141.4,55.2,141.9,55.2,142.6z"/>
		</g>
		<g>
			<rect x="47.8" y="135.8" class="st0" width="4.4" height="4.4"/>
			<path class="st1" d="M52.2,138c0,1.2-1,2.2-2.2,2.2c-1.2,0-2.2-1-2.2-2.2c0-1.2,1-2.2,2.2-2.2C51.2,135.8,52.2,136.8,52.2,138z"
				/>
		</g>
		<g>
			<rect x="47.7" y="132.7" class="st0" width="3.3" height="3.3"/>
			<path class="st1" d="M51,134.4c0,0.9-0.7,1.6-1.6,1.6c-0.9,0-1.6-0.7-1.6-1.6s0.7-1.6,1.6-1.6C50.2,132.7,51,133.5,51,134.4z"/>
		</g>
		<g>
			<rect x="54.3" y="124" class="st0" width="3.7" height="3.7"/>
			<path class="st1" d="M58,125.9c0,1-0.8,1.9-1.9,1.9c-1,0-1.9-0.8-1.9-1.9s0.8-1.9,1.9-1.9C57.1,124,58,124.9,58,125.9z"/>
		</g>
		<g>
			<rect x="47.6" y="122" class="st0" width="4.5" height="4.5"/>
			<path class="st1" d="M52,124.2c0,1.2-1,2.2-2.2,2.2c-1.2,0-2.2-1-2.2-2.2s1-2.2,2.2-2.2C51,122,52,123,52,124.2z"/>
		</g>
		<g>
			<rect x="42.1" y="118.5" class="st0" width="4.1" height="4.1"/>
			<path class="st1" d="M46.2,120.5c0,1.1-0.9,2.1-2.1,2.1c-1.1,0-2.1-0.9-2.1-2.1s0.9-2.1,2.1-2.1
				C45.3,118.5,46.2,119.4,46.2,120.5z"/>
		</g>
		<g>
			<rect x="43.4" y="113.3" class="st0" width="2.4" height="2.4"/>
			<path class="st1" d="M45.8,114.5c0,0.7-0.5,1.2-1.2,1.2c-0.7,0-1.2-0.5-1.2-1.2c0-0.7,0.5-1.2,1.2-1.2
				C45.3,113.3,45.8,113.8,45.8,114.5z"/>
		</g>
		<g>
			<rect x="54.4" y="107.4" class="st0" width="4.3" height="4.3"/>
			<path class="st1" d="M58.7,109.6c0,1.2-1,2.2-2.2,2.2c-1.2,0-2.2-1-2.2-2.2c0-1.2,1-2.2,2.2-2.2
				C57.8,107.4,58.7,108.4,58.7,109.6z"/>
		</g>
		<g>
			<rect x="46" y="103.4" class="st0" width="3.2" height="3.2"/>
			<path class="st1" d="M49.2,105c0,0.9-0.7,1.6-1.6,1.6c-0.9,0-1.6-0.7-1.6-1.6s0.7-1.6,1.6-1.6C48.5,103.4,49.2,104.1,49.2,105z"
				/>
		</g>
		<g>
			<rect x="44.7" y="97.9" class="st0" width="3" height="3"/>
			<path class="st1" d="M47.7,99.4c0,0.8-0.7,1.5-1.5,1.5c-0.8,0-1.5-0.7-1.5-1.5c0-0.8,0.7-1.5,1.5-1.5
				C47,97.9,47.7,98.6,47.7,99.4z"/>
		</g>
		<g>
			<rect x="42.2" y="92.2" class="st0" width="2.6" height="2.6"/>
			<path class="st1" d="M44.8,93.5c0,0.7-0.6,1.3-1.3,1.3c-0.7,0-1.3-0.6-1.3-1.3s0.6-1.3,1.3-1.3C44.3,92.2,44.8,92.8,44.8,93.5z"
				/>
		</g>
		<g>
			<rect x="51.8" y="89.1" class="st0" width="3.4" height="3.4"/>
			<path class="st1" d="M55.2,90.9c0,1-0.8,1.7-1.7,1.7c-1,0-1.7-0.8-1.7-1.7s0.8-1.7,1.7-1.7C54.5,89.1,55.2,89.9,55.2,90.9z"/>
		</g>
		<g>
			<rect x="46.2" y="78.9" class="st0" width="3.9" height="3.9"/>
			<path class="st1" d="M50.2,80.8c0,1.1-0.9,2-2,2c-1.1,0-2-0.9-2-2s0.9-2,2-2C49.3,78.9,50.2,79.8,50.2,80.8z"/>
		</g>
		<g>
			<rect x="58.4" y="78.5" class="st0" width="4.6" height="4.6"/>
			<path class="st1" d="M63,80.8c0,1.3-1,2.3-2.3,2.3c-1.3,0-2.3-1-2.3-2.3s1-2.3,2.3-2.3C61.9,78.5,63,79.5,63,80.8z"/>
		</g>
		<g>
			<rect x="53.8" y="71" class="st0" width="4" height="4"/>
			<path class="st1" d="M57.8,73c0,1.1-0.9,2-2,2c-1.1,0-2-0.9-2-2c0-1.1,0.9-2,2-2C56.9,71,57.8,71.9,57.8,73z"/>
		</g>
		<g>
			<rect x="68.9" y="73.9" class="st0" width="3.6" height="3.6"/>
			<path class="st1" d="M72.4,75.7c0,1-0.8,1.8-1.8,1.8c-1,0-1.8-0.8-1.8-1.8s0.8-1.8,1.8-1.8C71.6,73.9,72.4,74.7,72.4,75.7z"/>
		</g>
		<g>
			<rect x="70.9" y="70.3" class="st0" width="4.3" height="4.3"/>
			<path class="st1" d="M75.1,72.5c0,1.2-1,2.1-2.1,2.1c-1.2,0-2.1-1-2.1-2.1c0-1.2,1-2.1,2.1-2.1C74.2,70.3,75.1,71.3,75.1,72.5z"
				/>
		</g>
		<g>
			<rect x="68.7" y="61.5" class="st0" width="4.4" height="4.4"/>
			<path class="st1" d="M73.1,63.7c0,1.2-1,2.2-2.2,2.2c-1.2,0-2.2-1-2.2-2.2s1-2.2,2.2-2.2C72.1,61.5,73.1,62.5,73.1,63.7z"/>
		</g>
		<g>
			<rect x="70.7" y="55.9" class="st0" width="1.8" height="1.8"/>
			<path class="st1" d="M72.5,56.8c0,0.5-0.4,0.9-0.9,0.9c-0.5,0-0.9-0.4-0.9-0.9c0-0.5,0.4-0.9,0.9-0.9
				C72.1,55.9,72.5,56.3,72.5,56.8z"/>
		</g>
		<g>
			<rect x="74.2" y="54.8" class="st0" width="3.9" height="3.9"/>
			<path class="st1" d="M78.1,56.7c0,1.1-0.9,2-2,2c-1.1,0-2-0.9-2-2c0-1.1,0.9-2,2-2C77.3,54.8,78.1,55.7,78.1,56.7z"/>
		</g>
		<g>
			<rect x="87.1" y="51.2" class="st0" width="1.9" height="1.9"/>
			<path class="st1" d="M89.1,52.1c0,0.5-0.4,1-1,1c-0.5,0-1-0.4-1-1s0.4-1,1-1C88.6,51.2,89.1,51.6,89.1,52.1z"/>
		</g>
		<g>
			<rect x="79.5" y="62.3" class="st0" width="4.4" height="4.4"/>
			<path class="st1" d="M83.9,64.6c0,1.2-1,2.2-2.2,2.2c-1.2,0-2.2-1-2.2-2.2c0-1.2,1-2.2,2.2-2.2C82.9,62.3,83.9,63.3,83.9,64.6z"
				/>
		</g>
		<g>
			<rect x="87.7" y="63.2" class="st0" width="2.6" height="2.6"/>
			<path class="st1" d="M90.3,64.5c0,0.7-0.6,1.3-1.3,1.3c-0.7,0-1.3-0.6-1.3-1.3c0-0.7,0.6-1.3,1.3-1.3
				C89.7,63.2,90.3,63.8,90.3,64.5z"/>
		</g>
		<g>
			<rect x="92.4" y="67.2" class="st0" width="4" height="4"/>
			<path class="st1" d="M96.4,69.1c0,1.1-0.9,2-2,2c-1.1,0-2-0.9-2-2s0.9-2,2-2C95.5,67.2,96.4,68,96.4,69.1z"/>
		</g>
		<g>
			<rect x="87.1" y="72.1" class="st0" width="3.4" height="3.4"/>
			<path class="st1" d="M90.5,73.8c0,0.9-0.8,1.7-1.7,1.7c-0.9,0-1.7-0.8-1.7-1.7c0-0.9,0.8-1.7,1.7-1.7
				C89.7,72.1,90.5,72.9,90.5,73.8z"/>
		</g>
		<g>
			<rect x="95.1" y="77" class="st0" width="2.5" height="2.5"/>
			<path class="st1" d="M97.6,78.2c0,0.7-0.6,1.3-1.3,1.3c-0.7,0-1.3-0.6-1.3-1.3c0-0.7,0.6-1.3,1.3-1.3
				C97.1,77,97.6,77.6,97.6,78.2z"/>
		</g>
		<g>
			<rect x="83.5" y="84.6" class="st0" width="2.1" height="2.1"/>
			<path class="st1" d="M85.6,85.6c0,0.6-0.5,1-1,1c-0.6,0-1-0.5-1-1s0.5-1,1-1C85.1,84.6,85.6,85,85.6,85.6z"/>
		</g>
		<g>
			<rect x="86.5" y="90.7" class="st0" width="1.8" height="1.8"/>
			<path class="st1" d="M88.3,91.6c0,0.5-0.4,0.9-0.9,0.9c-0.5,0-0.9-0.4-0.9-0.9c0-0.5,0.4-0.9,0.9-0.9
				C87.9,90.7,88.3,91.1,88.3,91.6z"/>
		</g>
		<g>
			<rect x="92.6" y="95.4" class="st0" width="2.2" height="2.2"/>
			<path class="st1" d="M94.8,96.5c0,0.6-0.5,1.1-1.1,1.1c-0.6,0-1.1-0.5-1.1-1.1c0-0.6,0.5-1.1,1.1-1.1
				C94.3,95.4,94.8,95.9,94.8,96.5z"/>
		</g>
		<g>
			<rect x="95.1" y="98.5" class="st0" width="3.5" height="3.5"/>
			<path class="st1" d="M98.7,100.3c0,1-0.8,1.8-1.8,1.8c-1,0-1.8-0.8-1.8-1.8c0-1,0.8-1.8,1.8-1.8C97.9,98.5,98.7,99.3,98.7,100.3z
				"/>
		</g>
		<g>
			<rect x="89.9" y="104.1" class="st0" width="3.6" height="3.6"/>
			<path class="st1" d="M93.6,105.9c0,1-0.8,1.8-1.8,1.8c-1,0-1.8-0.8-1.8-1.8c0-1,0.8-1.8,1.8-1.8
				C92.8,104.1,93.6,104.9,93.6,105.9z"/>
		</g>
		<g>
			<rect x="87.8" y="108.5" class="st0" width="2.9" height="2.9"/>
			<path class="st1" d="M90.7,109.9c0,0.8-0.6,1.4-1.4,1.4c-0.8,0-1.4-0.6-1.4-1.4c0-0.8,0.6-1.4,1.4-1.4
				C90,108.5,90.7,109.1,90.7,109.9z"/>
		</g>
		<g>
			<rect x="92.5" y="112" class="st0" width="2" height="2"/>
			<path class="st1" d="M94.5,113c0,0.6-0.4,1-1,1c-0.6,0-1-0.4-1-1c0-0.6,0.4-1,1-1C94.1,112,94.5,112.5,94.5,113z"/>
		</g>
		<g>
			<rect x="101.8" y="115" class="st0" width="2.7" height="2.7"/>
			<path class="st1" d="M104.5,116.4c0,0.7-0.6,1.3-1.3,1.3c-0.7,0-1.3-0.6-1.3-1.3s0.6-1.3,1.3-1.3
				C103.9,115,104.5,115.6,104.5,116.4z"/>
		</g>
		<g>
			<rect x="100.1" y="121.3" class="st0" width="2.8" height="2.8"/>
			<path class="st1" d="M102.9,122.7c0,0.8-0.6,1.4-1.4,1.4c-0.8,0-1.4-0.6-1.4-1.4c0-0.8,0.6-1.4,1.4-1.4
				C102.3,121.3,102.9,122,102.9,122.7z"/>
		</g>
		<g>
			<rect x="97" y="126.2" class="st0" width="2" height="2"/>
			<path class="st1" d="M99,127.2c0,0.6-0.4,1-1,1c-0.6,0-1-0.4-1-1c0-0.6,0.4-1,1-1C98.6,126.2,99,126.7,99,127.2z"/>
		</g>
		<g>
			<rect x="90.1" y="133.7" class="st0" width="1.9" height="1.9"/>
			<path class="st1" d="M92,134.7c0,0.5-0.4,1-1,1c-0.5,0-1-0.4-1-1c0-0.5,0.4-1,1-1C91.5,133.7,92,134.1,92,134.7z"/>
		</g>
		<g>
			<rect x="99" y="135.8" class="st0" width="3.5" height="3.5"/>
			<path class="st1" d="M102.6,137.6c0,1-0.8,1.8-1.8,1.8c-1,0-1.8-0.8-1.8-1.8s0.8-1.8,1.8-1.8
				C101.8,135.8,102.6,136.6,102.6,137.6z"/>
		</g>
		<g>
			<rect x="95.9" y="143.5" class="st0" width="2" height="2"/>
			<path class="st1" d="M97.9,144.5c0,0.5-0.4,1-1,1c-0.5,0-1-0.4-1-1s0.4-1,1-1C97.5,143.5,97.9,143.9,97.9,144.5z"/>
		</g>
		<g>
			<rect x="95.3" y="149.4" class="st0" width="4" height="4"/>
			<path class="st1" d="M99.3,151.4c0,1.1-0.9,2-2,2c-1.1,0-2-0.9-2-2s0.9-2,2-2C98.4,149.4,99.3,150.3,99.3,151.4z"/>
		</g>
		<g>
			<rect x="105.5" y="146.5" class="st0" width="2.4" height="2.4"/>
			<path class="st1" d="M108,147.8c0,0.7-0.5,1.2-1.2,1.2c-0.7,0-1.2-0.5-1.2-1.2c0-0.7,0.5-1.2,1.2-1.2
				C107.4,146.5,108,147.1,108,147.8z"/>
		</g>
		<g>
			<rect x="104.3" y="138.5" class="st0" width="3.7" height="3.7"/>
			<path class="st1" d="M108,140.3c0,1-0.8,1.9-1.9,1.9c-1,0-1.9-0.8-1.9-1.9c0-1,0.8-1.9,1.9-1.9C107.2,138.5,108,139.3,108,140.3z
				"/>
		</g>
		<g>
			<rect x="114.4" y="146.7" class="st0" width="3.6" height="3.6"/>
			<path class="st1" d="M118,148.5c0,1-0.8,1.8-1.8,1.8c-1,0-1.8-0.8-1.8-1.8c0-1,0.8-1.8,1.8-1.8C117.2,146.7,118,147.5,118,148.5z
				"/>
		</g>
		<g>
			<rect x="112.8" y="137.8" class="st0" width="3.4" height="3.4"/>
			<path class="st1" d="M116.2,139.5c0,0.9-0.8,1.7-1.7,1.7c-0.9,0-1.7-0.8-1.7-1.7s0.8-1.7,1.7-1.7
				C115.4,137.8,116.2,138.6,116.2,139.5z"/>
		</g>
		<g>
			<rect x="115.2" y="133.3" class="st0" width="3.3" height="3.3"/>
			<path class="st1" d="M118.5,134.9c0,0.9-0.7,1.6-1.6,1.6c-0.9,0-1.6-0.7-1.6-1.6c0-0.9,0.7-1.6,1.6-1.6
				C117.7,133.3,118.5,134,118.5,134.9z"/>
		</g>
		<g>
			<rect x="113" y="124.7" class="st0" width="4" height="4"/>
			<path class="st1" d="M117,126.7c0,1.1-0.9,2-2,2c-1.1,0-2-0.9-2-2s0.9-2,2-2C116.1,124.7,117,125.6,117,126.7z"/>
		</g>
		<g>
			<rect x="120.6" y="124.5" class="st0" width="2.2" height="2.2"/>
			<path class="st1" d="M122.9,125.6c0,0.6-0.5,1.1-1.1,1.1c-0.6,0-1.1-0.5-1.1-1.1c0-0.6,0.5-1.1,1.1-1.1
				C122.4,124.5,122.9,125,122.9,125.6z"/>
		</g>
	</g>
</g>
</svg>
